<svg xmlns="http://www.w3.org/2000/svg" viewBox="0 0 44 44">
  <path fill="#fff" d="M4.44,28.38A5.68,5.68,0,0,1,4.86,26c.47-.86,2.13-1.17,3-1.41a25.81,25.81,0,0,0,3.05-.8,8.56,8.56,0,0,1,1.26-.61,2.25,2.25,0,0,1,1.09.2c.43.13.86.25,1.29.4s1.2.37,1.45.75c.39.61-.59,1.05-1,1.39-1.94,1.6-3.56,3.49-5.8,4.72-1,.57-2.56,1.16-3.74.66C4.43,30.87,4.44,29.32,4.44,28.38ZM6.65,10.55c0-.52-.13-1.12.19-1.54.77-1,2-.91,3.07-.69a5.48,5.48,0,0,1,2.71,1.23A33.81,33.81,0,0,1,15,12a13.52,13.52,0,0,1,2.3,2.66c.4.75,1.48,2.64.84,3.46s-2.26.51-3,.34a10,10,0,0,1-3.51-1.75c-1.22-.87-2.46-1.8-3.6-2.77A4,4,0,0,1,6.65,10.55Zm15,15.94c3.08.49,4.1,3.63,4.86,6.24a6.44,6.44,0,0,1,.37,1.56,10,10,0,0,1-.17,2.11,3.82,3.82,0,0,1-2.19,3,2.74,2.74,0,0,1-3.24-1.31A8.34,8.34,0,0,1,19.79,35a29.38,29.38,0,0,1,0-3.77c0-.66,0-1.31,0-2a3.53,3.53,0,0,1,1.89-2.77C22.57,26.64,21.28,26.75,21.68,26.5Zm.38-15c1.3-2.17,1-6.18,4-7a6.51,6.51,0,0,1,2.59-.15c1.2.3,1.37,2.14,1.36,3.14,0,2.85-.62,6.17-2.7,8.28a4.3,4.3,0,0,1-3.41,1.34c-.76-.07-1.75-.47-1.81-1.29C21.94,14.45,22.05,13,22.05,11.52Zm5.87,12a1.91,1.91,0,0,1,.47-1.12,11,11,0,0,1,1.14-1.62,2.78,2.78,0,0,1,1.82-1c.77,0,1.54,0,2.32,0a4.69,4.69,0,0,1,.87,0,6.17,6.17,0,0,1,1,.49,14.48,14.48,0,0,1,2.14.69,6.65,6.65,0,0,1,1.45,1.19,1,1,0,0,1,.24,1.35,8.66,8.66,0,0,1-1.11,1.77,3.15,3.15,0,0,1-2.94,1.58H33.73a7.3,7.3,0,0,1-1.16,0,5.71,5.71,0,0,1-1.49-.71c-.67-.35-1.33-.72-2-1.08S27.93,24.36,27.93,23.54Z"/>
</svg>
