<svg xmlns="http://www.w3.org/2000/svg" viewBox="0 0 180 180">
  <path fill="#fff" d="M50.37,61.1c.52,1.22,1.35,3.18,2.46,5.84a52.43,52.43,0,0,0,2.6,5.61A3,3,0,0,0,58,74.32a2.13,2.13,0,0,0,1.59-.64,2,2,0,0,0,.61-1.37,4,4,0,0,0-.55-1.71,3.4,3.4,0,0,1-.43-1.54c0-4.5.12-9.1.35-13.66.12-2,.18-3.34.18-4.1a3.14,3.14,0,0,0-.58-2,2,2,0,0,0-1.61-.77,2.14,2.14,0,0,0-1.64.74,2.61,2.61,0,0,0-.65,1.81,27.78,27.78,0,0,0,.54,3.88A87.37,87.37,0,0,1,56.36,66c-.8-1.6-1.9-3.91-3.3-6.9a21.55,21.55,0,0,0-5.92-8,10.82,10.82,0,0,0-6.45-2.67c-2.41,0-2.77,1.38-2.77,2.21a1.74,1.74,0,0,0,.76,1.49,2.76,2.76,0,0,0,1,.44c.09,3.9.13,6.91.13,9s-.11,4.33-.33,6.53-.34,3.56-.34,4a2.29,2.29,0,0,0,.61,1.48,2.14,2.14,0,0,0,3.27,0,2.29,2.29,0,0,0,.61-1.48c0-.39-.11-1.69-.34-4s-.33-5-.33-8.36c0-2.9,0-5.15.08-6.69C46,54,48.46,56.67,50.37,61.1Zm29.15,2.58a7.1,7.1,0,0,0-1.65-4.78,5.32,5.32,0,0,0-4.18-2A9.71,9.71,0,0,0,69,58.26a11.88,11.88,0,0,0-4.06,3.89,9.72,9.72,0,0,0-1.75,5.45,7.1,7.1,0,0,0,1.65,4.78,5.32,5.32,0,0,0,4.18,2A9.71,9.71,0,0,0,73.71,73a11.88,11.88,0,0,0,4.06-3.89A9.73,9.73,0,0,0,79.53,63.69Zm-4.78,5.39a4.44,4.44,0,0,1-3.35,1.4,4.82,4.82,0,1,1,0-9.64,4.47,4.47,0,0,1,3.36,1.38,4.66,4.66,0,0,1,1.36,3.42A4.72,4.72,0,0,1,74.74,69.08Zm53.07-7.26a4.45,4.45,0,0,1,2.94-1,5.46,5.46,0,0,1,1.93.39,5.55,5.55,0,0,0,1.76.46,1.86,1.86,0,0,0,1.33-.66,2.31,2.31,0,0,0,.63-1.67,2,2,0,0,0-1.22-1.79,5.56,5.56,0,0,0-2.68-.58,10,10,0,0,0-6.81,2.78,9,9,0,0,0-3.1,6.92,7.84,7.84,0,0,0,2,5.44,6.26,6.26,0,0,0,4.77,2.22,7.82,7.82,0,0,0,4.84-1.63c1.51-1.15,2.21-2.09,2.21-3a1.18,1.18,0,0,0-.37-.85,1.23,1.23,0,0,0-.88-.37,2,2,0,0,0-1.22.64,4.67,4.67,0,0,1-6.36.1,4.44,4.44,0,0,1-1.45-2.48h.3l4.17.35h0a1.77,1.77,0,0,0,2-1.89c0-.55-.21-1.83-2.2-1.83h0l-4,.24A4.88,4.88,0,0,1,127.81,61.82ZM79.33,94.41a1,1,0,0,1,.65.18,1.11,1.11,0,0,1,.36.41,2.53,2.53,0,0,0,.56.81,1.7,1.7,0,0,0,1.25.46,1.87,1.87,0,0,0,1.5-.92,3.4,3.4,0,0,0,.6-2,2.69,2.69,0,0,0-.82-2,3.18,3.18,0,0,0-2.26-.77,5.08,5.08,0,0,0-3,1.24,8.9,8.9,0,0,0-1.65,1.66c-.14-2.51-1.49-2.9-2.31-2.9a2.33,2.33,0,0,0-2.29,2.35,3.75,3.75,0,0,0,.74,2,3,3,0,0,1,.56,1.72c0,1.59-.12,3.57-.35,5.9-.12,1.19-.18,2.12-.18,2.77a2.92,2.92,0,0,0,.54,1.83,1.87,1.87,0,0,0,1.53.76,2,2,0,0,0,1.57-.78,2.91,2.91,0,0,0,.6-1.9l-.28-6.34a6.46,6.46,0,0,1,1.12-3.34C78.3,94.78,78.83,94.41,79.33,94.41Zm11.14,1h0a4.45,4.45,0,0,1,2.94-1,5.46,5.46,0,0,1,1.93.39,5.55,5.55,0,0,0,1.76.46,1.86,1.86,0,0,0,1.33-.66,2.31,2.31,0,0,0,.63-1.67,2,2,0,0,0-1.22-1.79,5.56,5.56,0,0,0-2.68-.58,10,10,0,0,0-6.81,2.78,9,9,0,0,0-3.1,6.92,7.84,7.84,0,0,0,2,5.44A6.26,6.26,0,0,0,92,107.89a7.82,7.82,0,0,0,4.84-1.63c1.51-1.15,2.21-2.09,2.21-3a1.18,1.18,0,0,0-.37-.85,1.23,1.23,0,0,0-.88-.37,2,2,0,0,0-1.22.64,4.67,4.67,0,0,1-6.36.1,4.43,4.43,0,0,1-1.45-2.48h.3l4.17.36,0,0a1.74,1.74,0,0,0,2-1.85c0-.55-.21-1.74-2.2-1.74h0l-4,.16A5.16,5.16,0,0,1,90.47,95.39Zm14.82,0h0a4.45,4.45,0,0,1,2.94-1,5.46,5.46,0,0,1,1.93.39,5.55,5.55,0,0,0,1.76.46,1.86,1.86,0,0,0,1.33-.66,2.31,2.31,0,0,0,.63-1.67,2,2,0,0,0-1.22-1.79,5.56,5.56,0,0,0-2.68-.58,10,10,0,0,0-6.81,2.78,9,9,0,0,0-3.1,6.92,7.84,7.84,0,0,0,2,5.44,6.26,6.26,0,0,0,4.77,2.22,7.82,7.82,0,0,0,4.84-1.63c1.51-1.15,2.21-2.09,2.21-3a1.18,1.18,0,0,0-.37-.85,1.23,1.23,0,0,0-.88-.37,2,2,0,0,0-1.22.64,4.67,4.67,0,0,1-6.36.1,4.43,4.43,0,0,1-1.45-2.48h.3l4.17.36,0,0a1.74,1.74,0,0,0,2-1.85c0-.55-.21-1.74-2.2-1.74h0l-4,.16A5.16,5.16,0,0,1,105.3,95.39Zm-4.91-32a10.63,10.63,0,0,0-8.16-7.78.55.55,0,0,0-.54.88C95.11,60.81,95.92,65,95,66.85a1.69,1.69,0,0,1-1.69,1c-3.3-.16-3.58-5.67-3-18.81.41-9.1-4.18-18-8.61-23.29C74,16.61,60.65,18.27,54.95,19a51.09,51.09,0,0,0-11.71,3,26.7,26.7,0,0,1-6.16,1.7c-.81-4.38,2.6-12.5,4.9-15.44a.55.55,0,0,0-.71-.81,22.05,22.05,0,0,0-7.84,8.75A84.83,84.83,0,0,0,21.23.17a.55.55,0,0,0-.85.7C28.9,12.88,32,18.36,24.1,33.55l-1.52,2.91C15.28,50.37,9.51,61.35,9.51,75.3c0,7.25,3,16.29,6.14,25.86,3.24,9.82,6.6,20,6.48,28.06-.18,12.36-8.44,23.81-16.88,34.48a.55.55,0,0,0,.75.79c16.08-11.37,26.89-15.95,29.67-12.56s12.81,11.69,22.23,15.34a147.31,147.31,0,0,0,18.05,5.38,97.45,97.45,0,0,1,9.53,2.68.55.55,0,0,0,.41-1c-15.27-6.65-27.6-19.13-34.72-35.15-4.49-10.11-6.68-18.42-9-27.22-.94-3.59-1.92-7.29-3.06-11.11C44,95.46,52.87,90.18,58,91.1c1.63.29,3.36,3.3,4.75,8.25a65.15,65.15,0,0,1,2.17,12.72.55.55,0,0,0,1,.33c2.34-2.69,1.81-9.27,1.33-15.07-.32-4-.66-8,.18-9.24,1.45-2.07,12-3.5,16.71-3.34-1.05,1.41-2.5,3.8-.67,5.58a3.31,3.31,0,0,0,2.69,1,1.35,1.35,0,0,1,.8.13.93.93,0,0,0,.52.18.76.76,0,0,0,.49-.18c.8-.7,0-3.35-.36-4.1a6.19,6.19,0,0,0-1.19-1.55l-.32-.34a6.75,6.75,0,0,0,2.88.69A6.66,6.66,0,0,0,90.33,86c1.75-.37,2.84-1.83,3.54-4.75a.55.55,0,0,0-.76-.63,5.9,5.9,0,0,1-2.39.34c-2.05.05-4.66.75-5.83,2.48L83.4,82.8A31.63,31.63,0,0,0,69,79.16c-9.65-.23-24.1,3.36-35.35,8.77-7.88-19.27-4-30-.94-34.62,3.46-5.31,9-8.19,16.11-8.33,9.54-.2,13.33,1.39,18.14,3.4l1.7.7a.55.55,0,0,0,.55-.94C63.86,44,55.24,42.58,50.61,41.85l-.68-.11a23,23,0,0,1,3.45-2.16c2.51-1.38,5.11-2.81,5.62-5a.55.55,0,0,0-.94-.5c-3,3.28-13.1,6.66-20.69,6.14C41,35.75,49.24,29,60.49,29h.2C71.4,29.12,84,36.93,84.23,58.69c.1,8.69-2,10.94-4.28,13.33a16.88,16.88,0,0,0-3.06,4.06.55.55,0,0,0,.67.77c2.93-1,6.73-3.06,8.71-5.78a6,6,0,0,0,3.67,3.29,9.42,9.42,0,0,0,9.59-1.94C101.07,70.9,101.45,66.92,100.39,63.36Zm-71,42.58a1.36,1.36,0,0,1,1.52.8,32,32,0,0,1,2.77,10.1c.07.72.11,1.35.16,1.9.22,2.95.31,4.17,3,10.13a.33.33,0,0,1-.14.43.34.34,0,0,1-.17,0,.33.33,0,0,1-.26-.14c-.94-1.27-2-2.51-3-3.72-2.59-3.11-5-6.06-5.55-8.92a16.63,16.63,0,0,1,.12-5.56c.16-1.15.32-2.34.38-3.77A1.34,1.34,0,0,1,29.39,105.94Zm145.29,57c-1.21-1.07-2.42-2-3.6-2.94-3.6-2.81-6.71-5.24-7.28-9.62-.71-5.47-2.89-22.14.43-26.72s3.28-5.9,3.27-9.49c0-.26,0-.54,0-.84a9.29,9.29,0,0,0-.73-3.3c-.93-2.61-2.21-6.18,1-17.61,4.45-16,.63-45.94-5.57-57.54a30.54,30.54,0,0,0-13.67-13,39.17,39.17,0,0,0-20-3.58c-5.88.43-10.2,2.24-14,3.84-5.47,2.29-9.46,4-15,.19,1.41-1.91,2.73-7.23,2.35-9.15a12.67,12.67,0,0,0-1.88-4.8,12.08,12.08,0,0,1-1.28-2.59.55.55,0,0,0-1.07.15c0,.27-.32.61-.7,1a9.08,9.08,0,0,0-2.52,6.92A9.46,9.46,0,0,0,96.14,20a9.33,9.33,0,0,0-3.76-1.38,16.22,16.22,0,0,0-3.94.12,5.75,5.75,0,0,1-2.79,0,.55.55,0,0,0-.75.71,8.85,8.85,0,0,0,4.82,5.22,8.92,8.92,0,0,0,3.19.56,7.73,7.73,0,0,0,3.89-.9l.25-.13c1-.66,1.32-.76,1.63-.76h0a.44.44,0,0,0,.18,0c4.42,3.7,6.73,6.46,7.17,7.72-2.76,3.32-4.32,16.19-3.84,25.45.46,8.73,3.19,17.43,6.34,20.24a3.65,3.65,0,0,0,2.67,1.08c4.63-.29,7.62-6.51,8.66-10.14a.55.55,0,0,0-1-.48c-1.93,2.61-3.49,4-4.63,4.14-.78.09-1.37-.4-2-1l-.13-.11c-1.07-1-3.25-18.43,1.39-30.18a19.62,19.62,0,0,1,12.58-11.94c4.15-1.15,10.76-1.25,18.69,4.8,13.07,10,12.62,26.12,12.45,32.2v.19a21.87,21.87,0,0,0-1.95-1.15c-3.89-2.12-9.22-5-9.61-18.79a.55.55,0,0,0-1.08-.14c-2.88,9.86-.48,15.55,2.5,18.75-3-.15-5.59-.16-7.51.94a.55.55,0,0,0,0,1c1.63.73,3.32,1.32,5,1.9,3.48,1.22,6.78,2.37,7.66,4.4,1.71,3.92.57,8.49-.27,11.83a24.92,24.92,0,0,0-.7,3.34c-3.69-2.39-14.65-3.85-22.79-3.28-5,.35-11.18,1.57-12,5.42-1.17,5.47,1.24,8.08,3.37,10.39,1.55,1.68,2.89,3.13,2.55,5.46-1.07,7.3-8.72,8.8-14.87,10-3.67.72-6.57,1.29-7.64,2.92a.55.55,0,0,0,.64.82c2.48-.88,5.63-1.07,9-1.28,7.56-.46,16.13-1,21.18-9.48,1.87-3.14-.32-6.1-2.25-8.71-2.32-3.14-3.62-5.17-1.32-7.32a3.36,3.36,0,0,1,2.35-.39c5.63.44,17.22,6,19.42,8.84,1.46,1.87.18,20.68-11.09,38.6-7.06,11.24-18.68,21.72-28,30.15-4.07,3.67-7.58,6.84-10.11,9.53a.55.55,0,0,0,.75.8c7.73-6.42,28.09-18,41.19-20.76a.55.55,0,0,0,.27-.14c3.95-3.85,5.5-5.54,6.64-9.9,1.49,3.12,1.76,4.31,1.6,9.3a.55.55,0,0,0,.16.41.56.56,0,0,0,.41.16c2-.09,5.15,1,8.48,2.18,5,1.76,10.74,3.76,15.24,2.82a.55.55,0,0,0,.25-.95Zm-17.29-42.2a.19.19,0,0,1,.29-.25c2.57,2.3,7.86-4.9,5.71-8.12-1.14-1.71-3.59.7-3.71,2.23-.07.84.28,1.33,1.1.9,1.07-.57.78-1.34.39-1.76.92.09,1.52,1.81-.44,2.52-1.49.54-2.12-.57-2-1.85.19-2.67,4.09-6,5.92-2.81,1.46,2.54.06,6.26-1.72,8.25C161.46,121.47,158.58,122.5,157.39,120.78Z"/>
</svg>
