<svg xmlns="http://www.w3.org/2000/svg" viewBox="0 0 44 44">
  <path fill="#C1B459" d="M36.34,14.69v.91A21.59,21.59,0,0,1,34,25.38a20.69,20.69,0,0,1-7.28,8,20.11,20.11,0,0,1-11.39,3.27A20.25,20.25,0,0,1,4,33.32a15.56,15.56,0,0,0,1.76.07A14.27,14.27,0,0,0,15,30.23a6.91,6.91,0,0,1-4.29-1.44A7.66,7.66,0,0,1,8,25.09a5.35,5.35,0,0,0,1.41.14,8.74,8.74,0,0,0,2-.21,7.43,7.43,0,0,1-4.22-2.6,7.08,7.08,0,0,1-1.69-4.64v-.14a6.64,6.64,0,0,0,3.3.91,6.82,6.82,0,0,1-3.3-6.12A7.64,7.64,0,0,1,6.53,8.71a19.74,19.74,0,0,0,15.19,7.73,6.93,6.93,0,0,1-.21-1.69,7.16,7.16,0,0,1,2.14-5.2A7.43,7.43,0,0,1,34.3,9.7,14.68,14.68,0,0,0,39,7.94,7.33,7.33,0,0,1,35.78,12,14.46,14.46,0,0,0,40,10.82,15.09,15.09,0,0,1,36.34,14.69Z"/>
</svg>
